<svg xmlns="http://www.w3.org/2000/svg" version="1.1" xmlns:xlink="http://www.w3.org/1999/xlink" xmlns:svgjs="http://svgjs.dev/svgjs" width="1500" height="553" viewBox="0 0 1500 553"><g transform="matrix(1,0,0,1,-0.9090909090911055,-1.43700540468501)"><svg viewBox="0 0 396 146" data-background-color="#ffffff" preserveAspectRatio="xMidYMid meet" height="553" width="1500" xmlns="http://www.w3.org/2000/svg" xmlns:xlink="http://www.w3.org/1999/xlink"><g id="tight-bounds" transform="matrix(1,0,0,1,0.24000000000003752,0.3793902153417861)"><svg viewBox="0 0 395.5199999999999 145.24121956931643" height="145.24121956931643" width="395.5199999999999"><g><svg viewBox="0 0 395.5199999999999 145.24121956931643" height="145.24121956931643" width="395.5199999999999"><g transform="matrix(1,0,0,1,0,89.76490048258387)"><svg viewBox="0 0 395.5199999999999 55.47631908673255" height="55.47631908673255" width="395.5199999999999"><g id="textblocktransform"><svg viewBox="0 0 395.5199999999999 55.47631908673255" height="55.47631908673255" width="395.5199999999999" id="textblock"><g><svg viewBox="0 0 395.5199999999999 55.47631908673255" height="55.47631908673255" width="395.5199999999999"><g transform="matrix(1,0,0,1,0,0)"><svg width="395.5199999999999" viewBox="1.83 -37.7 350.71000000000004 49.2" height="55.47631908673255" data-palette-color="#729343"><path d="M9.4-32.79L10.38-37.01 23.78-37.01Q27.03-37.01 29.65-35.78 32.28-34.55 34.12-32.41 35.96-30.27 36.95-27.42 37.94-24.56 37.94-21.34L37.94-21.34Q37.94-18.14 37.17-15.32 36.4-12.5 35-10.12 33.59-7.74 31.59-5.87 29.59-4 27.15-2.7 24.71-1.39 21.88-0.7 19.04 0 15.94 0L15.94 0 1.83 0 2.78-4.2 6.01-4.2 12.6-32.79 9.4-32.79ZM23.14-32.79L17.65-32.79 11.11-4.2 16.48-4.2Q18.51-4.2 20.48-4.74 22.46-5.27 24.26-6.3 26.05-7.32 27.58-8.79 29.1-10.25 30.21-12.11 31.32-13.96 31.96-16.19 32.59-18.41 32.59-20.95L32.59-20.95Q32.59-23.32 31.92-25.45 31.25-27.59 30.02-29.22 28.78-30.86 27.04-31.82 25.29-32.79 23.14-32.79L23.14-32.79ZM56.86 0L57.25-1.71Q55.61-0.61 53.96-0.09 52.32 0.44 50.56 0.44L50.56 0.44Q48.48 0.44 46.68-0.37 44.87-1.17 43.54-2.56 42.21-3.96 41.44-5.85 40.67-7.74 40.67-9.91L40.67-9.91Q40.67-13.45 41.92-16.41 43.16-19.36 45.3-21.48 47.43-23.61 50.28-24.78 53.12-25.95 56.32-25.95L56.32-25.95Q58.15-25.95 59.76-25.4 61.37-24.85 62.4-23.97L62.4-23.97 62.72-25.29 67.62-25.29 62.74-4.2 66.67-4.2 65.72 0 56.86 0ZM51.71-3.76L51.71-3.76Q52.61-3.76 53.55-3.98 54.49-4.2 55.34-4.54 56.2-4.88 56.96-5.33 57.71-5.79 58.3-6.27L58.3-6.27 61.45-19.8Q60.81-20.61 59.47-21.18 58.13-21.75 55.95-21.75L55.95-21.75Q54.07-21.75 52.24-20.98 50.41-20.21 48.97-18.76 47.53-17.31 46.63-15.2 45.73-13.09 45.73-10.4L45.73-10.4Q45.73-8.84 46.16-7.6 46.6-6.37 47.39-5.52 48.17-4.66 49.28-4.21 50.39-3.76 51.71-3.76ZM73.85-21.09L74.85-25.29 79.07-25.29 80.56-31.35 85.71-33.45 83.78-25.29 89.11-25.29 88.11-21.09 82.78-21.09 79.56-7.45Q79.44-6.96 79.33-6.46 79.22-5.96 79.22-5.4L79.22-5.4Q79.22-4.3 79.82-3.85 80.41-3.39 81.71-3.39L81.71-3.39Q83.1-3.39 85.05-4.2L85.05-4.2 85.47-0.71Q84.17-0.1 82.98 0.26 81.78 0.61 80.32 0.61L80.32 0.61Q78.78 0.61 77.51 0.23 76.24-0.15 75.41-1.01 74.58-1.88 74.31-3.28 74.04-4.69 74.51-6.74L74.51-6.74 78.02-21.09 73.85-21.09ZM108.05 0L108.44-1.71Q106.8-0.61 105.16-0.09 103.51 0.44 101.75 0.44L101.75 0.44Q99.68 0.44 97.87-0.37 96.06-1.17 94.73-2.56 93.4-3.96 92.63-5.85 91.86-7.74 91.86-9.91L91.86-9.91Q91.86-13.45 93.11-16.41 94.35-19.36 96.49-21.48 98.63-23.61 101.47-24.78 104.31-25.95 107.51-25.95L107.51-25.95Q109.34-25.95 110.95-25.4 112.57-24.85 113.59-23.97L113.59-23.97 113.91-25.29 118.82-25.29 113.93-4.2 117.86-4.2 116.91 0 108.05 0ZM102.9-3.76L102.9-3.76Q103.8-3.76 104.74-3.98 105.68-4.2 106.54-4.54 107.39-4.88 108.15-5.33 108.9-5.79 109.49-6.27L109.49-6.27 112.64-19.8Q112-20.61 110.66-21.18 109.32-21.75 107.15-21.75L107.15-21.75Q105.27-21.75 103.43-20.98 101.6-20.21 100.16-18.76 98.72-17.31 97.82-15.2 96.92-13.09 96.92-10.4L96.92-10.4Q96.92-8.84 97.36-7.6 97.8-6.37 98.58-5.52 99.36-4.66 100.47-4.21 101.58-3.76 102.9-3.76ZM150.84-10.35L155.53-7.86Q154.12-5.86 152.38-4.28 150.65-2.71 148.57-1.62 146.5-0.54 144.08 0.04 141.66 0.61 138.88 0.61L138.88 0.61Q135.54 0.61 132.69-0.65 129.85-1.9 127.77-4.13 125.7-6.35 124.51-9.39 123.33-12.43 123.33-15.99L123.33-15.99Q123.33-19.04 124.05-21.85 124.77-24.66 126.09-27.06 127.41-29.47 129.29-31.43 131.17-33.4 133.5-34.79 135.83-36.18 138.55-36.94 141.27-37.7 144.28-37.7L144.28-37.7Q148.43-37.7 151.66-36.02 154.9-34.35 156.97-31.4L156.97-31.4 160.78-31.4 159.78-27.2 153.04-27.2Q152.5-28.44 151.61-29.49 150.72-30.54 149.54-31.29 148.35-32.03 146.89-32.45 145.42-32.86 143.74-32.86L143.74-32.86Q140.52-32.86 137.78-31.56 135.05-30.25 133.05-28 131.04-25.76 129.92-22.77 128.8-19.78 128.8-16.41L128.8-16.41Q128.8-13.6 129.68-11.34 130.56-9.08 132.02-7.51 133.49-5.93 135.41-5.09 137.34-4.25 139.44-4.25L139.44-4.25Q143.13-4.25 145.93-5.77 148.72-7.3 150.84-10.35L150.84-10.35ZM159.17-10.96L159.17-10.96Q159.17-13.06 159.69-14.99 160.22-16.92 161.18-18.6 162.15-20.29 163.5-21.66 164.86-23.02 166.49-24 168.13-24.98 169.99-25.51 171.86-26.05 173.86-26.05L173.86-26.05Q176.38-26.05 178.53-25.16 180.68-24.27 182.24-22.72 183.8-21.17 184.69-19.08 185.58-16.99 185.58-14.6L185.58-14.6Q185.58-12.48 185.05-10.52 184.51-8.57 183.54-6.88 182.58-5.2 181.24-3.81 179.89-2.42 178.25-1.44 176.6-0.46 174.72 0.07 172.84 0.61 170.81 0.61L170.81 0.61Q168.27 0.61 166.15-0.28 164.03-1.17 162.46-2.73 160.9-4.3 160.03-6.41 159.17-8.52 159.17-10.96ZM164.27-11.3L164.27-11.3Q164.27-9.59 164.77-8.19 165.27-6.79 166.17-5.8 167.08-4.81 168.35-4.26 169.62-3.71 171.13-3.71L171.13-3.71Q172.91-3.71 174.61-4.49 176.31-5.27 177.6-6.67 178.89-8.06 179.69-10.01 180.48-11.96 180.48-14.31L180.48-14.31Q180.48-16.02 179.96-17.38 179.43-18.75 178.5-19.73 177.58-20.7 176.32-21.23 175.06-21.75 173.57-21.75L173.57-21.75Q171.76-21.75 170.09-20.98 168.42-20.21 167.13-18.84 165.83-17.46 165.05-15.53 164.27-13.6 164.27-11.3ZM191.17-21.09L192.17-25.29 201.62-25.29 201.01-22.71Q202.74-24.15 204.81-24.95 206.87-25.76 209.16-25.76L209.16-25.76Q211.75-25.76 213.63-24.71 215.51-23.66 216.29-21.53L216.29-21.53Q217.2-22.46 218.27-23.23 219.35-24 220.55-24.56 221.76-25.12 223.09-25.44 224.42-25.76 225.82-25.76L225.82-25.76Q227.77-25.76 229.34-25.17 230.92-24.58 231.92-23.39 232.92-22.19 233.24-20.41 233.55-18.63 233.02-16.26L233.02-16.26 230.23-4.2 233.87-4.2 232.92 0 224.33 0 227.96-15.65Q228.65-18.53 227.52-20 226.4-21.46 223.72-21.46L223.72-21.46Q221.81-21.46 220.1-20.64 218.39-19.82 216.86-18.38L216.86-18.38 212.63 0 207.68 0 211.31-15.65Q212-18.53 210.87-20 209.75-21.46 207.07-21.46L207.07-21.46Q205.16-21.46 203.45-20.64 201.74-19.82 200.2-18.36L200.2-18.36 195.98 0 191.03 0 195.91-21.09 191.17-21.09ZM242.37-21.09L243.37-25.29 252.96-25.29 252.62-23.63Q254.3-24.8 255.99-25.38 257.67-25.95 259.5-25.95L259.5-25.95Q261.58-25.95 263.4-25.15 265.22-24.34 266.55-22.95 267.88-21.56 268.65-19.67 269.42-17.77 269.42-15.6L269.42-15.6Q269.42-12.06 268.17-9.11 266.93-6.15 264.79-4.03 262.65-1.9 259.81-0.73 256.96 0.44 253.77 0.44L253.77 0.44Q251.91 0.44 250.29-0.11 248.66-0.66 247.61-1.54L247.61-1.54 245.59 7.3 249.76 7.3 248.81 11.5 239.61 11.5 247.2-21.09 242.37-21.09ZM258.36-21.75L258.36-21.75Q256.65-21.75 254.9-21.06 253.16-20.36 251.69-19.17L251.69-19.17 248.59-5.76Q249.23-4.96 250.56-4.36 251.89-3.76 254.11-3.76L254.11-3.76Q255.99-3.76 257.82-4.53 259.65-5.3 261.1-6.75 262.56-8.2 263.46-10.3 264.36-12.4 264.36-15.09L264.36-15.09Q264.36-16.65 263.92-17.88 263.48-19.12 262.69-19.97 261.9-20.83 260.8-21.29 259.7-21.75 258.36-21.75ZM290.04 0L290.43-1.71Q288.8-0.61 287.15-0.09 285.5 0.44 283.74 0.44L283.74 0.44Q281.67 0.44 279.86-0.37 278.06-1.17 276.73-2.56 275.4-3.96 274.63-5.85 273.86-7.74 273.86-9.91L273.86-9.91Q273.86-13.45 275.1-16.41 276.35-19.36 278.48-21.48 280.62-23.61 283.46-24.78 286.31-25.95 289.51-25.95L289.51-25.95Q291.34-25.95 292.95-25.4 294.56-24.85 295.59-23.97L295.59-23.97 295.9-25.29 300.81-25.29 295.93-4.2 299.86-4.2 298.91 0 290.04 0ZM284.89-3.76L284.89-3.76Q285.8-3.76 286.74-3.98 287.68-4.2 288.53-4.54 289.38-4.88 290.14-5.33 290.9-5.79 291.48-6.27L291.48-6.27 294.63-19.8Q294-20.61 292.66-21.18 291.31-21.75 289.14-21.75L289.14-21.75Q287.26-21.75 285.43-20.98 283.6-20.21 282.16-18.76 280.72-17.31 279.81-15.2 278.91-13.09 278.91-10.4L278.91-10.4Q278.91-8.84 279.35-7.6 279.79-6.37 280.57-5.52 281.35-4.66 282.46-4.21 283.57-3.76 284.89-3.76ZM321.78-18.26L321.78-18.26Q321.75-19.21 321.4-19.95 321.05-20.68 320.42-21.18 319.8-21.68 318.96-21.94 318.12-22.19 317.14-22.19L317.14-22.19Q316.16-22.19 315.29-21.96 314.41-21.73 313.75-21.26 313.09-20.8 312.71-20.14 312.33-19.48 312.33-18.65L312.33-18.65Q312.33-17.68 312.95-17.03 313.58-16.38 314.92-15.84L314.92-15.84 319.63-14.16Q321.78-13.38 322.9-11.73 324.03-10.08 324.03-7.74L324.03-7.74Q324.03-5.64 323.26-4.05 322.49-2.47 321.12-1.39 319.75-0.32 317.86 0.22 315.97 0.76 313.72 0.76L313.72 0.76Q312.36 0.76 311.11 0.54 309.87 0.32 308.8-0.13 307.74-0.59 306.95-1.26 306.15-1.93 305.71-2.81L305.71-2.81 303.13-2.81 304.13-7.01 309.28-7.01Q309.16-6.05 309.52-5.32 309.89-4.59 310.57-4.09 311.26-3.59 312.2-3.34 313.14-3.1 314.19-3.1L314.19-3.1Q315.24-3.1 316.15-3.37 317.07-3.64 317.75-4.15 318.43-4.66 318.84-5.42 319.24-6.18 319.24-7.15L319.24-7.15Q319.24-8.08 318.58-8.85 317.92-9.62 316.53-10.11L316.53-10.11 312.04-11.74Q309.87-12.6 308.69-14.25 307.52-15.89 307.52-17.94L307.52-17.94Q307.52-19.75 308.16-21.24 308.79-22.73 310.04-23.8 311.28-24.88 313.16-25.46 315.04-26.05 317.53-26.05L317.53-26.05Q318.97-26.05 320.19-25.77 321.41-25.49 322.37-25 323.32-24.51 324-23.86 324.68-23.22 325.1-22.46L325.1-22.46 327.83-22.46 326.83-18.26 321.78-18.26ZM346.48-18.26L346.48-18.26Q346.46-19.21 346.11-19.95 345.75-20.68 345.13-21.18 344.51-21.68 343.66-21.94 342.82-22.19 341.85-22.19L341.85-22.19Q340.87-22.19 339.99-21.96 339.11-21.73 338.45-21.26 337.79-20.8 337.41-20.14 337.04-19.48 337.04-18.65L337.04-18.65Q337.04-17.68 337.66-17.03 338.28-16.38 339.62-15.84L339.62-15.84 344.34-14.16Q346.48-13.38 347.61-11.73 348.73-10.08 348.73-7.74L348.73-7.74Q348.73-5.64 347.96-4.05 347.19-2.47 345.82-1.39 344.46-0.32 342.57 0.22 340.67 0.76 338.43 0.76L338.43 0.76Q337.06 0.76 335.81 0.54 334.57 0.32 333.51-0.13 332.45-0.59 331.65-1.26 330.86-1.93 330.42-2.81L330.42-2.81 327.83-2.81 328.83-7.01 333.98-7.01Q333.86-6.05 334.23-5.32 334.59-4.59 335.28-4.09 335.96-3.59 336.9-3.34 337.84-3.1 338.89-3.1L338.89-3.1Q339.94-3.1 340.86-3.37 341.77-3.64 342.46-4.15 343.14-4.66 343.54-5.42 343.94-6.18 343.94-7.15L343.94-7.15Q343.94-8.08 343.29-8.85 342.63-9.62 341.23-10.11L341.23-10.11 336.74-11.74Q334.57-12.6 333.4-14.25 332.23-15.89 332.23-17.94L332.23-17.94Q332.23-19.75 332.86-21.24 333.5-22.73 334.74-23.8 335.99-24.88 337.87-25.46 339.75-26.05 342.24-26.05L342.24-26.05Q343.68-26.05 344.9-25.77 346.12-25.49 347.07-25 348.02-24.51 348.71-23.86 349.39-23.22 349.8-22.46L349.8-22.46 352.54-22.46 351.54-18.26 346.48-18.26Z" opacity="1" transform="matrix(1,0,0,1,0,0)" fill="#729343" class="wordmark-text-0" data-fill-palette-color="primary" id="text-0"></path></svg></g></svg></g></svg></g></svg></g><g transform="matrix(1,0,0,1,159.42586351106777,0)"><svg viewBox="0 0 76.66827297786438 76.66827297786439" height="76.66827297786439" width="76.66827297786438"><g><svg></svg></g><g id="icon-0"><svg viewBox="0 0 76.66827297786438 76.66827297786439" height="76.66827297786439" width="76.66827297786438"><g><path transform="scale(0.76668,0.76668)" d="M30 100c-16.569 0-30-13.431-30-30v-40c0-16.569 13.431-30 30-30h40c16.569 0 30 13.431 30 30v40c0 16.569-13.431 30-30 30z" fill="#096a2e" fill-rule="nonzero" stroke="none" stroke-width="1" stroke-linecap="butt" stroke-linejoin="miter" stroke-miterlimit="10" stroke-dasharray="" stroke-dashoffset="0" font-family="none" font-weight="none" font-size="none" text-anchor="none" style="mix-blend-mode: normal" data-fill-palette-color="accent"></path></g><g transform="matrix(1,0,0,1,18.44193971864145,15.333654595572877)"><svg viewBox="0 0 39.784393540581476 46.000963786718636" height="46.000963786718636" width="39.784393540581476"><g><svg xmlns="http://www.w3.org/2000/svg" xmlns:xlink="http://www.w3.org/1999/xlink" version="1.1" x="0" y="0" viewBox="6.757 0 86.48599999999999 100" enable-background="new 0 0 100 100" xml:space="preserve" height="46.000963786718636" width="39.784393540581476" class="icon-dxe-0" data-fill-palette-color="quaternary" id="dxe-0"><g fill="#ffffff" data-fill-palette-color="quaternary"><path fill="#ffffff" d="M60.086 14.7C60.557 13.494 60.811 12.181 60.811 10.81 60.811 4.84 55.972 0 50 0 44.032 0 39.189 4.84 39.189 10.811 39.189 12.182 39.443 13.495 39.914 14.701 20.896 19.242 6.757 36.347 6.757 56.757 6.757 80.639 26.118 100 50 100S93.243 80.639 93.243 56.757C93.243 36.347 79.104 19.242 60.086 14.7M44.595 10.811C44.595 7.827 47.017 5.406 50 5.406S55.405 7.827 55.405 10.811A5.35 5.35 0 0 1 54.534 13.75C53.046 13.592 51.531 13.514 50 13.514S46.954 13.592 45.466 13.75A5.35 5.35 0 0 1 44.595 10.811M85.135 56.757C85.135 76.127 69.459 91.835 50.105 91.892L50.076 92.017 50.045 91.892H50.001C30.632 91.892 14.923 76.216 14.866 56.859L14.741 56.828 14.866 56.799V56.758C14.866 37.389 30.542 21.679 49.899 21.623L49.905 21.618 49.927 21.499 49.959 21.623H50C69.37 21.623 85.078 37.298 85.135 56.656L85.26 56.686 85.135 56.716z" data-fill-palette-color="quaternary"></path><path fill="#ffffff" d="M65.535 52.109C65.976 53.581 66.216 55.142 66.216 56.756 66.216 58.316 65.991 59.822 65.582 61.249L85.135 56.715V56.654z" data-fill-palette-color="quaternary"></path><path fill="#ffffff" d="M50 72.973C48.442 72.973 46.935 72.748 45.507 72.339L50.044 91.892H50.105L54.647 72.294A16.2 16.2 0 0 1 50 72.973" data-fill-palette-color="quaternary"></path><path fill="#ffffff" d="M33.784 56.757C33.784 55.199 34.01 53.691 34.418 52.264L14.865 56.798V56.859L34.465 61.405A16.1 16.1 0 0 1 33.784 56.757" data-fill-palette-color="quaternary"></path><path fill="#ffffff" d="M50 40.541C51.562 40.541 53.067 40.767 54.493 41.174L49.959 21.622H49.898L45.353 41.221C46.824 40.781 48.386 40.541 50 40.541" data-fill-palette-color="quaternary"></path><path fill="#ffffff" d="M60.153 69.399L67.232 73.921 62.703 66.831A16.2 16.2 0 0 1 60.153 69.399" data-fill-palette-color="quaternary"></path><path fill="#ffffff" d="M39.849 44.114L32.768 39.592 37.297 46.681A16.4 16.4 0 0 1 39.849 44.114" data-fill-palette-color="quaternary"></path><path fill="#ffffff" d="M69.037 39.479C71.484 35.993 70.634 35.142 67.146 37.589L48.943 50.356C50.927 49.987 52.953 50.541 54.518 52.108 56.083 53.673 56.638 55.7 56.267 57.683z" data-fill-palette-color="quaternary"></path><path fill="#ffffff" d="M45.481 61.146C43.917 59.579 43.364 57.548 43.738 55.56L30.964 73.773C28.516 77.256 29.366 78.109 32.858 75.662L51.061 62.891C49.076 63.261 47.046 62.706 45.481 61.146" data-fill-palette-color="quaternary"></path></g></svg></g></svg></g></svg></g></svg></g><g></g></svg></g><defs></defs></svg><rect width="395.5199999999999" height="145.24121956931643" fill="none" stroke="none" visibility="hidden"></rect></g></svg></g></svg>